<?xml version="1.0" encoding="utf-8"?>
<!-- Generator: Adobe Illustrator 16.0.0, SVG Export Plug-In . SVG Version: 6.00 Build 0)  -->
<!DOCTYPE svg PUBLIC "-//W3C//DTD SVG 1.1//EN" "http://www.w3.org/Graphics/SVG/1.1/DTD/svg11.dtd">
<svg version="1.1" id="Layer_1" xmlns="http://www.w3.org/2000/svg" xmlns:xlink="http://www.w3.org/1999/xlink" x="0px" y="0px"
	 width="864px" height="864px" viewBox="0 0 864 864" enable-background="new 0 0 864 864" xml:space="preserve">
<path d="M820.492,331.844c-5.936-24.19-14.301-47.644-25.468-69.937C784.123,240.145,740.209,108,543.625,45.274
	C482.494,25.77,419.668,23.146,356.587,34.533c-90.815,16.393-167.699,58.558-229.548,127.288
	c-9.643,10.717-17.889,22.746-26.244,34.549c-8.684,12.267-17.303,24.652-24.861,37.621c-7.079,12.144-12.743,25.114-19.01,37.729
	C38.504,308.792,27.919,348.134,23,389.105c-4.635,38.614-3.449,77.09,3.183,115.387c13.554,78.275,46.734,147.193,100.371,205.732
	c54.552,59.539,121.295,99.451,199.549,119.876c6.757,1.765,73.186,14.331,91.917,15.899c33.933-1.863,53.089,1.8,99.612-12.861
	C614,801,697.488,753.842,752.162,679.472C829.266,574.59,851.509,458.25,820.492,331.844z M790.908,322.016
	c8.641,27.668,13.687,55.994,16.104,84.836c0.23,2.759,0.023,4.556-3.395,4.588c-5.896,0.056-11.797,0.646-17.684,0.495
	c-14.888-0.379-29.768-1.072-44.652-1.592c-47.32-1.656-94.643-3.287-141.963-4.943c-1.324-0.047-2.641-0.275-3.961-0.42
	c-0.07-0.328-0.143-0.66-0.213-0.99c2.624-1.188,5.245-2.383,7.873-3.564c54.455-24.479,108.898-48.986,163.383-73.4
	c6.242-2.796,12.739-5.015,19.07-7.618C788.403,318.202,789.865,318.674,790.908,322.016z M749.538,231.762
	c15.391,24.547,27.772,50.521,37.379,77.846c1.011,2.873,0.286,4.136-2.408,5.343c-65.55,29.373-131.056,58.842-196.62,88.18
	c-2.445,1.094-5.406,1.512-8.115,1.465c-14.264-0.254-28.523-0.736-42.783-1.187c-3.353-0.105-6.699-0.39-11.263-0.667
	c2.15-1.816,3.269-2.816,4.442-3.747c65.123-51.604,130.239-103.217,195.398-154.776c5.989-4.738,12.289-9.081,18.38-13.692
	C746.427,228.652,747.906,229.16,749.538,231.762z M403.608,435.15c0-2.544,0.376-4.998,1.065-7.316
	c3.579-14.179,18.703-21.797,33.584-17.449c6.781,1.98,11.023,5.639,14.476,11.914c2.722,4.946,2.793,9.418,2.116,14.562
	c-0.001-0.011-0.002-0.02-0.002-0.03c-0.598,9.234-6.079,17.132-13.889,21.143c-2.199,1.212-4.663,2.089-7.225,2.43
	c-1.454,0.256-2.948,0.397-4.476,0.397C415.092,460.8,403.608,449.316,403.608,435.15z M390.551,412.49
	c-2.184-9.774-4.251-19.031-6.46-28.922c8.825,3.501,17.074,6.775,26.23,10.408C401.983,397.976,395.078,404.472,390.551,412.49z
	 M388.884,414.893c-0.417,0.184-0.825,0.362-1.232,0.543l-5.309-23.484C384.519,399.505,386.669,407.116,388.884,414.893z
	 M386.976,420.609c-0.407,1.247-0.757,2.518-1.056,3.811c-0.007,0.004-0.015,0.008-0.022,0.013c-1.05-1.772-1.829-3.089-2.874-4.854
	c1.208-0.492,2.316-0.942,3.406-1.386L386.976,420.609z M385.177,428.49c-0.269,1.99-0.421,4.019-0.421,6.083
	c0,8.243,2.228,15.963,6.098,22.607c-10.702-3.324-20.327-6.313-30.799-9.567c8.675-6.906,16.577-13.198,24.668-19.641
	C384.886,428.146,385.024,428.317,385.177,428.49z M468.1,458.128c2.536,10.481,4.84,19.998,7.362,30.425
	c-10.162-4.141-19.669-8.014-29.474-12.01C455.217,472.971,462.975,466.45,468.1,458.128z M469.398,413.268
	c8.705,2.575,16.866,4.985,25.77,7.619c-7.193,5.607-13.878,10.814-20.469,15.949c0.037-0.75,0.057-1.504,0.057-2.263
	C474.756,426.864,472.814,419.609,469.398,413.268z M471.092,411.599c-0.506-0.124-1.119-0.581-1.648-1.114l0.438-4.26
	c0.576-0.523,1.204-0.899,1.728-0.896c13.46,0.08,26.92,0.463,40.379,0.791c0.398,0.012,0.79,0.32,2.072,0.873
	c-5.02,3.73-9.555,7.176-14.203,10.463c-0.607,0.43-1.827,0.195-2.706,0.006C488.449,415.576,479.734,413.73,471.092,411.599z
	 M467.436,394.341c-0.355,3.294-0.396,6.622-0.581,9.933c-0.001,0.013-0.003,0.027-0.005,0.041c0.051,0.041,0.1,0.086,0.15,0.125
	c-0.055,0-0.111-0.002-0.166-0.002c-0.158,1.246-0.32,2.506-0.503,3.936c-0.994-1.385-2.056-2.717-3.196-3.979
	c1.232,0.01,2.467,0.039,3.699,0.043c0.005-0.041,0.01-0.082,0.016-0.123c-0.832-0.691-1.621-1.719-2.516-1.821
	c-1.041-0.12-2.099-0.146-3.184-0.146c-1.525-1.486-3.152-2.863-4.875-4.123c-0.351-6.521-0.48-12.875-1.715-19.002
	c-1.686-8.356,0.27-14.384,7.17-19.343c3.439-2.471,6.198-5.89,9.264-8.879c0.39,0.208,0.779,0.416,1.169,0.624
	c-0.53,5.208-1.016,10.421-1.603,15.622C469.543,376.281,468.41,385.303,467.436,394.341z M453.033,363.479
	c-1.086-8.698-2.072-16.115-2.873-23.552c-0.121-1.123,0.382-2.487,1.001-3.49c8.381-13.596,16.831-27.15,25.283-40.702
	c0.224-0.357,0.671-0.574,1.534-1.282c0.105,1.563,0.341,2.692,0.229,3.786c-1.479,14.485-2.98,28.967-4.564,43.439
	c-0.127,1.158-0.637,2.525-1.439,3.317C466.207,350.911,460.092,356.706,453.033,363.479z M450.285,371.39
	c1.2,8.573,2.326,16.621,3.521,25.157c-6.776-4.294-14.774-6.826-23.361-6.956C437.033,383.548,443.35,377.753,450.285,371.39z
	 M448.836,367.591c-6.947,7.222-13.921,14.424-21.281,22.038c-0.207,0.009-0.41,0.028-0.615,0.041
	c-1.998-1.601-3.717-2.978-5.607-4.493c8.318-13.646,16.443-26.971,24.566-40.297c0.439,0.043,0.879,0.086,1.318,0.13
	c0.855,6.997,1.732,13.991,2.518,20.996C449.791,366.5,449.253,367.158,448.836,367.591z M424.001,389.952
	c-2.388,0.305-4.716,0.794-6.971,1.458c0.894-1.521,1.783-3.035,2.794-4.754C421.41,387.908,422.743,388.96,424.001,389.952z
	 M416.139,389.067c-1.207,1.797-1.663,4.729-5.104,3.117c-8.917-4.181-17.895-8.234-26.815-12.416
	c-0.762-0.357-1.608-1.195-1.817-1.971c-1.896-7.042-3.658-14.12-5.46-21.186c0.42-0.238,0.839-0.477,1.26-0.714
	c8.61,6.458,17.218,12.917,25.83,19.374c3.759,2.818,7.397,5.825,11.333,8.371C418.053,385.38,417.484,387.066,416.139,389.067z
	 M377.077,376.824c-7.847-3.264-14.611-6.047-21.311-8.943c-0.741-0.32-1.243-1.375-1.679-2.187
	c-7.43-13.794-14.837-27.601-22.225-41.418c-0.264-0.493-0.291-1.111-0.782-3.116c13.89,10.255,26.617,19.638,39.314,29.062
	c0.281,0.208,0.571,0.458,0.834,0.733L377.077,376.824z M359.717,373.389c6.021,2.473,12.066,4.894,18.042,7.474
	c0.087,0.038,0.175,0.086,0.262,0.136l7.952,35.175c-1.189,0.524-2.345,1.034-3.475,1.531c-7.9-14.518-15.762-28.961-23.623-43.406
	C359.156,373.996,359.437,373.693,359.717,373.389z M384.323,426.118c-3.802,2.405-7.544,4.563-11.06,7.042
	c-5.105,3.6-10.009,7.484-15.088,11.121c-1.18,0.844-2.903,1.911-4.073,1.627c-5.979-1.456-11.857-3.32-17.771-5.042
	c-0.034-0.407-0.066-0.813-0.098-1.222c14.849-6.252,29.699-12.507,44.918-18.916C382.116,422.369,383.041,423.94,384.323,426.118z
	 M351.709,449.218c-6.39,4.915-11.676,9.065-17.078,13.058c-0.914,0.676-2.336,0.968-3.511,0.941
	c-14.261-0.322-28.519-0.734-42.776-1.149c-0.377-0.011-0.745-0.321-1.749-0.782c1.816-0.925,3.107-1.672,4.466-2.262
	c11.348-4.934,22.644-9.998,34.117-14.624c2.494-1.005,5.771-1.017,8.452-0.422C339.372,445.246,344.96,447.212,351.709,449.218z
	 M354.863,451.308c0.643-0.476,1.815-0.659,2.607-0.452c11.298,2.947,22.572,5.984,34.218,9.1c-0.272,1.6-0.524,3.068-0.65,3.809
	c-16.974,0-33.453,0-49.933,0c-0.105-0.568-0.21-1.137-0.316-1.707C345.469,458.459,350.121,454.822,354.863,451.308z
	 M392.801,470.273c0.173-1.177,1.46-2.188,2.234-3.273c1.072,0.98,2.961,1.863,3.094,2.957c1.368,11.314,2.485,22.661,3.562,34.008
	c0.089,0.941-0.379,2.169-1.006,2.909c-3.916,4.618-7.951,9.136-11.947,13.687c-0.712-0.522-1.423-1.043-2.135-1.564
	c1.464-10.969,2.971-21.933,4.377-32.91C391.656,480.823,392.026,475.52,392.801,470.273z M392.098,520.385
	c3.215-2.887,5.571-6.729,8.312-10.145c0.783,0.541,1.565,1.081,2.349,1.623c0.808,5.85,1.696,11.688,2.352,17.555
	c0.123,1.113-0.475,2.457-1.095,3.48c-7.14,11.795-14.345,23.551-21.552,35.306c-0.209,0.339-0.633,0.546-1.778,1.501
	c0.599-5.859,1.07-10.875,1.632-15.882c0.682-6.071,1.882-12.122,2.046-18.204C384.538,529.098,387.426,524.575,392.098,520.385z
	 M400.684,468.91c7.607,6.447,17.383,10.406,28.081,10.639c-0.438,1.107-1.996,3.324-3.175,4.384
	c-6.488,5.827-13.172,11.435-20.285,17.554C403.796,490.848,402.308,480.361,400.684,468.91z M407.714,505.4
	c7.061-7.537,14.153-15.045,21.358-22.441c0.885-0.908,2.487-1.118,3.758-1.652c-0.208,1.31-0.061,2.822-0.68,3.894
	c-6.51,11.247-13.139,22.427-19.749,33.616c-1.017,1.719-2.099,3.401-3.151,5.102c-0.396-0.072-0.795-0.143-1.191-0.215
	c-0.694-5.054-1.5-10.096-1.987-15.17C405.976,507.54,406.92,506.248,407.714,505.4z M438.835,478.656
	c1.315-0.27,2.605-0.604,3.876-0.984c3.076,1.698,5.908,3.308,8.854,4.661c7.251,3.333,14.703,6.243,21.867,9.747
	c1.923,0.94,3.81,3.15,4.497,5.188c1.836,5.434,3.01,11.092,4.446,16.66c-0.357,0.268-0.714,0.537-1.071,0.804
	c-4.457-3.366-8.877-6.785-13.381-10.089c-9.334-6.846-18.615-13.77-28.117-20.377C436.727,482.121,437.68,480.551,438.835,478.656z
	 M481.607,495.449c9.135,4.562,18.916,5.039,23.439,15.58c4.359,10.16,10.508,19.553,15.846,29.293
	c0.711,1.297,1.287,2.664,2.432,5.055c-1.925-1.086-2.865-1.498-3.672-2.094c-9.696-7.154-19.391-14.312-29.027-21.543
	c-1.198-0.9-2.622-2.076-3.001-3.395C485.561,511.168,483.793,503.906,481.607,495.449z M481.809,491.335
	c-0.836-0.38-1.588-1.505-1.881-2.442c-3.07-9.826-6.082-19.671-8.971-29.553c-0.281-0.959,0.362-2.188,0.577-3.291
	c1.042,0.613,2.527,0.969,3.056,1.879c7.127,12.299,14.125,24.672,21.137,37.039c0.219,0.387,0.236,0.889,0.639,2.519
	C490.902,495.205,486.309,493.375,481.809,491.335z M472.426,448.863c0.941-2.81,1.61-5.742,1.981-8.769
	c7.925-5.527,15.776-11.159,23.694-16.696c0.835-0.585,2.094-1.238,2.944-1.024c8.39,2.112,16.734,4.403,25.091,6.644
	c0.023,0.391,0.048,0.783,0.073,1.176c-1.483,0.691-2.948,1.427-4.452,2.07c-14.645,6.267-29.318,12.465-43.93,18.811
	C474.513,452.513,473.424,450.737,472.426,448.863z M503.725,419.135c6.01-4.53,10.936-8.334,15.987-11.964
	c0.909-0.653,2.345-0.853,3.524-0.815c16.416,0.51,32.831,1.094,49.246,1.68c0.548,0.02,1.088,0.254,2.796,0.678
	c-3.436,1.609-5.884,2.817-8.38,3.918c-10.301,4.542-20.604,9.077-30.941,13.535c-1.229,0.531-2.801,1.066-3.991,0.756
	C522.914,424.554,513.916,421.975,503.725,419.135z M686.146,155.172c21.34,19.81,40.209,41.715,56.428,65.912
	c1.557,2.322,1.409,3.697-0.791,5.452c-18.586,14.821-37.017,29.836-55.648,44.599c-54.448,43.141-108.961,86.201-163.5,129.227
	c-1.489,1.176-3.57,2.299-5.366,2.283c-15.21-0.132-30.419-0.527-45.628-0.87c-0.402-0.009-0.809-0.149-1.27-0.302l3.798-36.87
	c0.711-5.686,1.432-11.369,2.181-17.047c0.213-1.614,1.711-3.279,3.01-4.498c35.668-33.491,71.367-66.949,107.106-100.365
	c25.772-24.097,51.599-48.135,77.421-72.178c5.56-5.177,11.291-10.171,16.768-15.435C682.764,153.053,684.16,153.33,686.146,155.172
	z M604.84,97.41c25.491,13.725,49.352,29.793,71.305,48.709c3.227,2.78,2.613,4.502-0.033,7.027
	c-28.077,26.79-55.898,53.851-84.174,80.429c-36.206,34.034-72.764,67.693-109.175,101.51c-1.448,1.346-2.932,2.656-4.397,3.983
	c-0.375-0.215-0.748-0.43-1.121-0.646c1.038-9.787,2.077-19.574,3.117-29.36c0.547-5.143,1.188-10.277,1.621-15.429
	c0.451-5.367,1.874-10.158,4.852-14.891c32.219-51.202,64.195-102.556,96.266-153.852c5.451-8.719,11.098-17.318,16.509-26.063
	C601.061,96.48,602.266,96.024,604.84,97.41z M504.113,76.652c0.792-0.805,2.046-1.489,2.294-2.437
	c0.944-3.612,1.566-7.31,2.481-11.834c7.184,1.865,14.105,3.538,20.955,5.463c21.479,6.036,42.396,13.573,62.527,23.27
	c3.236,1.559,4.355,2.987,2.429,6.32c-5.382,9.311-10.29,18.909-15.964,28.035c-30.055,48.335-60.285,96.561-90.463,144.818
	c-0.95,1.521-1.989,2.985-2.986,4.476c-0.402-0.136-0.807-0.273-1.211-0.409c4.316-42.208,8.633-84.417,12.947-126.626
	c-0.205-0.022-0.408-0.044-0.612-0.065l7.346-71.333C503.946,76.438,504.034,76.544,504.113,76.652z M433.623,54.133
	c21.881-0.199,43.486,2.356,64.981,6.241c2.161,0.391,3.437,1.106,3.928,2.459l-22.667,220.089c-0.152,0.933-0.391,1.87-0.86,2.621
	c-9.303,14.888-18.679,29.731-28.058,44.572c-0.223,0.351-0.674,0.557-1.445,1.168c-0.416-1.535-0.896-2.77-1.078-4.048
	c-5.466-38.327-10.838-76.667-16.361-114.985c-6.1-42.343-12.422-84.654-18.443-127.007c-1.438-10.118-2.068-20.351-3.127-31.101
	C419.255,54.143,426.439,54.199,433.623,54.133z M312.507,75.568c-1.807-4.652,1.503-4.896,4.63-5.839
	c26.535-8.002,53.629-12.872,81.245-15.037c6.681-0.523,6.65-0.574,7.993,6.337c7.011,36.086,10.715,72.664,16.24,108.972
	c6.863,45.094,13.053,90.292,19.494,135.45c1.396,9.777,2.699,19.569,3.866,29.375c0.188,1.579-0.142,3.527-0.952,4.868
	c-8.514,14.073-17.172,28.057-25.982,42.377c-1.104-0.725-2.131-1.324-3.076-2.031c-11.924-8.931-23.766-17.972-35.795-26.758
	c-3.478-2.54-5.564-5.39-6.561-9.707c-13.982-60.61-28.135-121.18-42.259-181.757c-1.271-5.456-2.628-10.892-3.945-16.337
	c-0.246,0.069-0.491,0.139-0.737,0.208l-10.8-47.771c0.261-0.093,0.522-0.186,0.783-0.279c-0.695-1.899-1.421-3.788-2.13-5.682
	l-3.275-14.486c0.292-0.204,0.624-0.407,1.01-0.61C312.508,76.729,312.646,75.929,312.507,75.568z M309.776,79.138l0.752,3.326
	C309.847,81.361,309.34,80.248,309.776,79.138z M223.058,112.354c24.088-14.928,49.527-27.03,76.166-36.645
	c2.179-0.787,4.413-1.426,7.082-2.282c2.07,5.874,4.083,11.583,6.08,17.248l57.546,254.542c-1.919-1.259-3.157-2.008-4.312-2.854
	c-12.521-9.176-25.046-18.347-37.517-27.593c-1.341-0.994-2.675-2.269-3.451-3.715c-30.349-56.653-60.641-113.337-90.917-170.029
	c-4.085-7.649-7.921-15.436-12.141-23.008C220.081,115.303,220.547,113.911,223.058,112.354z M216.517,116.802
	c4.605,8.208,8.873,15.614,12.952,23.122c9.724,17.9,19.437,35.806,29.012,53.784c19.225,36.091,38.357,72.232,57.52,108.356
	c0.649,1.223,1.219,2.488,2.399,4.916c-1.993-1.032-3.036-1.409-3.893-2.037c-49.021-35.973-98.045-71.94-147.009-107.989
	c-6.138-4.518-11.991-9.426-17.886-14.265c-1.527-1.252-2.71-2.924-4.282-4.657C166.334,154.793,189.617,134.809,216.517,116.802z
	 M89.012,257.475c14.854-26.809,31.822-52.119,52.718-75.101c4.79,3.085,9.638,5.823,14.063,9.127
	c18.706,13.965,37.16,28.267,55.938,42.134c35.937,26.538,72.053,52.833,108.008,79.347c2.284,1.685,4.252,4.144,5.633,6.648
	c7.561,13.725,14.896,27.574,22.294,41.389c0.569,1.061,1.018,2.185,2.119,4.573c-12.829-5.075-24.299-9.636-35.786-14.152
	c-67.375-26.489-134.772-52.924-202.11-79.51c-7.354-2.903-14.369-6.66-21.554-9.993C88.152,260.926,87.804,259.654,89.012,257.475z
	 M55.338,349.735c4.258-14.748,7.979-29.68,12.967-44.176c4.377-12.722,10.245-24.926,15.303-37.42
	c1.202-2.968,2.683-3.118,5.414-2.015c28.132,11.366,56.263,22.738,84.485,33.875c57.442,22.666,114.925,45.233,172.45,67.688
	c4.802,1.875,8.006,4.519,10.431,9.19c7.139,13.752,14.832,27.218,22.506,41.156c-15.963,6.646-31.548,13.222-47.235,19.546
	c-1.802,0.725-4.325,0.548-6.254-0.049c-70.818-21.889-141.595-43.917-212.41-65.818c-14.058-4.347-28.269-8.204-42.377-12.391
	c-4.583-1.36-9.062-3.069-13.597-4.592C54.234,353.792,54.753,351.761,55.338,349.735z M47.562,399.736
	c0.9-12.471,3.48-24.815,5.125-37.241c0.418-3.162,1.735-4.058,4.665-3.246c10.829,2.999,21.761,5.661,32.49,8.982
	c76.318,23.617,152.598,47.363,228.883,71.083c1.134,0.354,2.209,0.893,4.09,1.664c-1.819,0.986-2.943,1.709-4.152,2.234
	c-13.221,5.752-26.422,11.551-39.716,17.129c-2.356,0.987-5.127,1.5-7.683,1.425c-60.65-1.784-121.296-3.706-181.944-5.518
	c-7.971-0.237-15.964,0.218-23.931-0.077c-5.75-0.215-11.507-0.945-17.175-1.936c-0.993-0.172-2.252-2.785-2.223-4.247
	C46.325,433.232,46.355,416.441,47.562,399.736z M61.904,545.933c-8.134-26.804-13.112-54.2-15.413-82.112
	c-0.305-3.699,0.502-5.115,4.404-5.014c23.456,0.615,46.919,0.906,70.372,1.604c46.228,1.374,92.449,2.94,138.673,4.438
	c1.649,0.053,3.293,0.219,4.94,0.329c0.061,0.472,0.123,0.942,0.184,1.413c-66.386,28.984-132.771,57.969-199.836,87.251
	C64.257,551.562,62.785,548.838,61.904,545.933z M103.923,637.741c-14.597-24.047-27.237-49.046-36.804-75.562
	c-1.36-3.769-0.857-5.436,2.939-7.066c33.481-14.384,66.88-28.956,100.295-43.49c33.486-14.564,66.933-29.218,100.487-43.621
	c3.594-1.542,7.793-2.346,11.71-2.34c13.638,0.018,27.277,0.534,40.915,0.886c1.179,0.028,2.352,0.222,4.875,0.472
	c-73.558,59.18-146.162,117.592-219.375,176.496C107.312,641.65,105.246,639.921,103.923,637.741z M168.383,715.826
	c-20.568-20.295-40.004-41.538-56.375-65.455c-1.95-2.85-1.72-4.211,1.008-6.39C185.589,586.035,258.09,528,330.554,469.916
	c2.861-2.294,5.715-3.182,9.405-3.135c16.583,0.211,33.168,0.092,49.867,0.092c-2.598,19.246-4.932,37.57-7.706,55.826
	c-0.366,2.401-2.654,4.812-4.604,6.623c-24.584,22.826-49.234,45.58-73.935,68.277c-37.399,34.365-74.859,68.666-112.277,103.01
	c-5.494,5.041-10.962,10.116-16.326,15.295C172.608,718.195,170.9,718.311,168.383,715.826z M250.219,773.707
	c-16.683-10.229-33.473-20.312-49.766-31.139c-8.807-5.85-16.718-13.049-25.468-19.98c4.028-4.717,7.167-9.258,11.133-12.897
	c34.639-31.79,69.464-63.376,104.159-95.106c29.264-26.763,58.426-53.635,87.64-80.451c0.658-0.605,1.394-1.127,3.231-2.602
	c-1.922,16.599-3.661,31.83-5.504,47.047c-0.142,1.164-0.936,2.297-1.584,3.344c-34.137,55.176-68.305,110.331-102.406,165.527
	c-2.375,3.846-4.014,8.15-6.425,11.97c-3.145,4.979-6.567,9.81-10.25,14.399C254.353,774.598,251.442,774.455,250.219,773.707z
	 M349.502,804.725c-0.528,3.646-2.287,4.025-5.561,3.277c-28.23-6.468-55.398-15.934-81.619-28.215
	c-3.191-1.494-3.936-2.842-2.083-5.924c7.638-12.717,14.936-25.641,22.73-38.256c29.493-47.733,59.13-95.377,88.718-143.049
	c0.529-0.854,1.135-1.663,1.706-2.49c0.312,0.094,0.625,0.189,0.938,0.285c-0.945,8.936-1.856,17.876-2.84,26.809
	c-4.234,38.477-8.467,76.954-12.75,115.426c-1.941,17.442-3.909,34.883-6.048,52.303
	C351.879,791.532,350.458,798.096,349.502,804.725z M445.587,816.757c-29.392,0.913-58.59-0.716-87.556-6.017
	c-3.502-0.643-4.858-1.426-4.362-5.643c6.598-56.232,12.93-112.496,19.316-168.754c1.944-17.123,3.748-34.262,5.877-51.361
	c0.39-3.137,1.582-6.389,3.196-9.117c7.562-12.787,15.399-25.41,23.138-38.091c0.406,0.035,0.812,0.07,1.219,0.105
	c1.336,8.435,2.643,16.874,4.017,25.302c6.753,41.434,13.554,82.859,20.28,124.299c5.545,34.174,11.07,68.353,16.456,102.551
	c1.163,7.377,1.598,14.869,2.552,22.283C450.159,815.719,448.811,816.656,445.587,816.757z M542.302,799.146
	c-27.042,8.44-54.644,13.938-82.848,16.559c-3.737,0.347-5.136-0.558-5.741-4.464c-6.432-41.417-13.02-82.812-19.674-124.193
	c-7.34-45.635-14.75-91.26-22.223-136.873c-3.041-18.572-3.091-18.517,6.484-34.549c6.097-10.21,11.979-20.548,17.839-30.623
	c15.668,11.986,31.147,23.693,46.404,35.686c1.707,1.339,2.603,4.176,3.128,6.489c8.588,37.741,17.084,75.505,25.542,113.276
	c9.794,43.734,19.544,87.479,29.277,131.227c1.655,7.439,3.06,14.933,4.736,22.366C545.86,796.844,545.33,798.199,542.302,799.146z
	 M632.988,756.519c-25.67,16.261-52.716,29.652-81.562,39.315c-0.118,0.04-0.288-0.068-0.433-0.109
	c-0.433-0.006-0.865-0.012-1.297-0.02c-2.803-11.791-5.768-23.549-8.382-35.381c-15.419-69.781-30.747-139.581-46.133-209.369
	c-1.741-7.904-3.644-15.771-4.508-24.41c12.731,9.51,25.499,18.973,38.136,28.605c1.25,0.955,1.717,2.946,2.532,4.463
	c30.36,56.475,60.728,112.947,91.067,169.434c3.986,7.42,7.803,14.928,11.758,22.363
	C635.303,753.545,635.262,755.077,632.988,756.519z M639.379,752.094c-4.541-7.985-8.898-15.315-12.939-22.816
	c-9.07-16.836-17.938-33.781-26.972-50.637c-20.068-37.449-40.188-74.867-60.28-112.302c-0.711-1.329-1.33-2.708-1.203-4.843
	c28.89,21.092,57.898,42.021,86.636,63.318c28.649,21.229,57.979,41.57,86.359,64.359
	C689.45,713.364,666.047,733.676,639.379,752.094z M714.104,685.679c-1.226-0.728-2.203-1.202-3.066-1.835
	c-49.586-36.389-99.166-72.789-148.744-109.191c-7.328-5.381-14.462-11.057-22.033-16.07c-6.344-4.201-10.841-9.525-14.258-16.309
	c-5.979-11.875-12.578-23.438-19.574-36.338c82.801,31.773,164.377,63.04,245.897,94.452c4.884,1.883,9.319,4.924,14.299,7.604
	C752.346,636.469,734.712,661.967,714.104,685.679z M799.216,516.49c-5.655,25.973-13.999,51.063-24.728,75.372
	c-0.697,1.577-1.432,3.136-2.131,4.713c-3.235,7.293-3.234,7.296-10.486,4.48c-75.01-29.122-150.021-58.233-225.021-87.378
	c-10.225-3.973-20.41-8.045-30.549-12.225c-1.621-0.668-3.414-1.855-4.264-3.307c-8.229-14.068-16.273-28.241-24.354-42.395
	c-0.215-0.377-0.229-0.871-0.277-1.067c16.855-7.083,33.358-13.851,49.7-20.988c4.462-1.948,8.426-2.167,13.063-0.745
	c74.129,22.718,148.297,45.314,222.467,67.896c6.888,2.1,13.891,3.816,20.782,5.904c4.745,1.438,9.356,3.316,14.089,4.803
	C800.521,512.502,799.635,514.566,799.216,516.49z M803.586,492.513c-0.52,3.41-1.229,6.801-1.57,10.229
	c-0.386,3.849-1.779,5.019-5.811,3.832c-24.594-7.239-49.348-13.944-73.878-21.39c-59.53-18.066-118.969-36.439-178.44-54.703
	c-1.144-0.352-2.238-0.864-4.594-1.785c15.815-6.982,30.391-13.494,45.059-19.793c1.747-0.749,4-0.504,6.008-0.434
	c59.402,2.064,118.802,4.191,178.205,6.226c6.73,0.231,13.482-0.195,20.213,0.005c5.285,0.158,10.553,0.865,15.836,1.227
	c2.944,0.201,2.936,2.215,2.996,4.341C808.304,444.463,807.231,468.561,803.586,492.513z"/>
</svg>
